<svg xmlns="http://www.w3.org/2000/svg" xmlns:xlink="http://www.w3.org/1999/xlink" contentStyleType="text/css" height="398px" preserveAspectRatio="none" style="width:1049px;height:398px;background:#FFFFFF;" version="1.1" viewBox="0 0 1049 398" width="1049px" zoomAndPan="magnify"><defs/><g><!--class Product--><g id="elem_Product"><rect codeLine="1" fill="#F1F1F1" height="178.375" id="Product" rx="2.5" ry="2.5" style="stroke:#181818;stroke-width:0.5;" width="211.917" x="286" y="213"/><ellipse cx="360.8535" cy="229" fill="#ADD1B2" rx="11" ry="11" style="stroke:#181818;stroke-width:1.0;"/><path d="M363.8223,234.6406 Q363.2441,234.9375 362.6035,235.0781 Q361.9629,235.2344 361.2598,235.2344 Q358.7598,235.2344 357.4316,233.5938 Q356.1191,231.9375 356.1191,228.8125 Q356.1191,225.6875 357.4316,224.0313 Q358.7598,222.375 361.2598,222.375 Q361.9629,222.375 362.6035,222.5313 Q363.2598,222.6875 363.8223,222.9844 L363.8223,225.7031 Q363.1973,225.125 362.6035,224.8594 Q362.0098,224.5781 361.3848,224.5781 Q360.041,224.5781 359.3535,225.6563 Q358.666,226.7188 358.666,228.8125 Q358.666,230.9063 359.3535,231.9844 Q360.041,233.0469 361.3848,233.0469 Q362.0098,233.0469 362.6035,232.7813 Q363.1973,232.5 363.8223,231.9219 L363.8223,234.6406 Z " fill="#000000"/><text fill="#000000" font-family="sans-serif" font-size="14" lengthAdjust="spacing" textLength="53.71" x="381.3535" y="233.8467">Product</text><line style="stroke:#181818;stroke-width:0.5;" x1="287" x2="496.917" y1="245" y2="245"/><rect fill="none" height="6" style="stroke:#C82930;stroke-width:1.0;" width="6" x="294" y="255.6484"/><text fill="#000000" font-family="sans-serif" font-size="14" lengthAdjust="spacing" textLength="67.4092" x="306" y="261.9951">name: str</text><rect fill="none" height="6" style="stroke:#C82930;stroke-width:1.0;" width="6" x="294" y="271.9453"/><text fill="#000000" font-family="sans-serif" font-size="14" lengthAdjust="spacing" textLength="181.7607" x="306" y="278.292">expiration_date: datetime</text><rect fill="none" height="6" style="stroke:#C82930;stroke-width:1.0;" width="6" x="294" y="288.2422"/><text fill="#000000" font-family="sans-serif" font-size="14" lengthAdjust="spacing" textLength="68.8926" x="306" y="294.5889">kcal: float</text><rect fill="none" height="6" style="stroke:#C82930;stroke-width:1.0;" width="6" x="294" y="304.5391"/><text fill="#000000" font-family="sans-serif" font-size="14" lengthAdjust="spacing" textLength="90.6924" x="306" y="310.8857">protein: float</text><rect fill="none" height="6" style="stroke:#C82930;stroke-width:1.0;" width="6" x="294" y="320.8359"/><text fill="#000000" font-family="sans-serif" font-size="14" lengthAdjust="spacing" textLength="59.6162" x="306" y="327.1826">fat: float</text><rect fill="none" height="6" style="stroke:#C82930;stroke-width:1.0;" width="6" x="294" y="337.1328"/><text fill="#000000" font-family="sans-serif" font-size="14" lengthAdjust="spacing" textLength="78.832" x="306" y="343.4795">carbs: float</text><line style="stroke:#181818;stroke-width:0.5;" x1="287" x2="496.917" y1="350.7813" y2="350.7813"/><ellipse cx="297" cy="364.4297" fill="#84BE84" rx="3" ry="3" style="stroke:#038048;stroke-width:1.0;"/><text fill="#000000" font-family="sans-serif" font-size="14" lengthAdjust="spacing" textLength="125.5625" x="306" y="367.7764">is_expired() : bool</text><ellipse cx="297" cy="380.7266" fill="#84BE84" rx="3" ry="3" style="stroke:#038048;stroke-width:1.0;"/><text fill="#000000" font-family="sans-serif" font-size="14" lengthAdjust="spacing" textLength="185.917" x="306" y="384.0732">get_nutritional_info() : dict</text></g><!--class Fridge--><g id="elem_Fridge"><rect codeLine="12" fill="#F1F1F1" height="113.1875" id="Fridge" rx="2.5" ry="2.5" style="stroke:#181818;stroke-width:0.5;" width="311.8242" x="428" y="15"/><ellipse cx="557.6196" cy="31" fill="#ADD1B2" rx="11" ry="11" style="stroke:#181818;stroke-width:1.0;"/><path d="M560.5884,36.6406 Q560.0103,36.9375 559.3696,37.0781 Q558.729,37.2344 558.0259,37.2344 Q555.5259,37.2344 554.1978,35.5938 Q552.8853,33.9375 552.8853,30.8125 Q552.8853,27.6875 554.1978,26.0313 Q555.5259,24.375 558.0259,24.375 Q558.729,24.375 559.3696,24.5313 Q560.0259,24.6875 560.5884,24.9844 L560.5884,27.7031 Q559.9634,27.125 559.3696,26.8594 Q558.7759,26.5781 558.1509,26.5781 Q556.8071,26.5781 556.1196,27.6563 Q555.4321,28.7188 555.4321,30.8125 Q555.4321,32.9063 556.1196,33.9844 Q556.8071,35.0469 558.1509,35.0469 Q558.7759,35.0469 559.3696,34.7813 Q559.9634,34.5 560.5884,33.9219 L560.5884,36.6406 Z " fill="#000000"/><text fill="#000000" font-family="sans-serif" font-size="14" lengthAdjust="spacing" textLength="44.085" x="578.1196" y="35.8467">Fridge</text><line style="stroke:#181818;stroke-width:0.5;" x1="429" x2="738.8242" y1="47" y2="47"/><rect fill="none" height="6" style="stroke:#C82930;stroke-width:1.0;" width="6" x="436" y="57.6484"/><text fill="#000000" font-family="sans-serif" font-size="14" lengthAdjust="spacing" textLength="172.2588" x="448" y="63.9951">products: List&lt;Product&gt;</text><line style="stroke:#181818;stroke-width:0.5;" x1="429" x2="738.8242" y1="71.2969" y2="71.2969"/><ellipse cx="439" cy="84.9453" fill="#84BE84" rx="3" ry="3" style="stroke:#038048;stroke-width:1.0;"/><text fill="#000000" font-family="sans-serif" font-size="14" lengthAdjust="spacing" textLength="258.7061" x="448" y="88.292">add_product(product: Product) : void</text><ellipse cx="439" cy="101.2422" fill="#84BE84" rx="3" ry="3" style="stroke:#038048;stroke-width:1.0;"/><text fill="#000000" font-family="sans-serif" font-size="14" lengthAdjust="spacing" textLength="285.8242" x="448" y="104.5889">remove_product(product: Product) : void</text><ellipse cx="439" cy="117.5391" fill="#84BE84" rx="3" ry="3" style="stroke:#038048;stroke-width:1.0;"/><text fill="#000000" font-family="sans-serif" font-size="14" lengthAdjust="spacing" textLength="277.5527" x="448" y="120.8857">get_expired_products() : List&lt;Product&gt;</text></g><!--class Reminder--><g id="elem_Reminder"><rect codeLine="19" fill="#F1F1F1" height="145.7813" id="Reminder" rx="2.5" ry="2.5" style="stroke:#181818;stroke-width:0.5;" width="267.7803" x="664" y="229"/><ellipse cx="759.6416" cy="245" fill="#ADD1B2" rx="11" ry="11" style="stroke:#181818;stroke-width:1.0;"/><path d="M762.6104,250.6406 Q762.0322,250.9375 761.3916,251.0781 Q760.751,251.2344 760.0479,251.2344 Q757.5479,251.2344 756.2197,249.5938 Q754.9072,247.9375 754.9072,244.8125 Q754.9072,241.6875 756.2197,240.0313 Q757.5479,238.375 760.0479,238.375 Q760.751,238.375 761.3916,238.5313 Q762.0479,238.6875 762.6104,238.9844 L762.6104,241.7031 Q761.9854,241.125 761.3916,240.8594 Q760.7979,240.5781 760.1729,240.5781 Q758.8291,240.5781 758.1416,241.6563 Q757.4541,242.7188 757.4541,244.8125 Q757.4541,246.9063 758.1416,247.9844 Q758.8291,249.0469 760.1729,249.0469 Q760.7979,249.0469 761.3916,248.7813 Q761.9854,248.5 762.6104,247.9219 L762.6104,250.6406 Z " fill="#000000"/><text fill="#000000" font-family="sans-serif" font-size="14" lengthAdjust="spacing" textLength="67.9971" x="780.1416" y="249.8467">Reminder</text><line style="stroke:#181818;stroke-width:0.5;" x1="665" x2="930.7803" y1="261" y2="261"/><rect fill="none" height="6" style="stroke:#C82930;stroke-width:1.0;" width="6" x="672" y="271.6484"/><text fill="#000000" font-family="sans-serif" font-size="14" lengthAdjust="spacing" textLength="90.624" x="684" y="277.9951">message: str</text><rect fill="none" height="6" style="stroke:#C82930;stroke-width:1.0;" width="6" x="672" y="287.9453"/><text fill="#000000" font-family="sans-serif" font-size="14" lengthAdjust="spacing" textLength="174.959" x="684" y="294.292">reminder_date: datetime</text><rect fill="none" height="6" style="stroke:#C82930;stroke-width:1.0;" width="6" x="672" y="304.2422"/><text fill="#000000" font-family="sans-serif" font-size="14" lengthAdjust="spacing" textLength="58.9805" x="684" y="310.5889">type: str</text><line style="stroke:#181818;stroke-width:0.5;" x1="665" x2="930.7803" y1="317.8906" y2="317.8906"/><ellipse cx="675" cy="331.5391" fill="#84BE84" rx="3" ry="3" style="stroke:#038048;stroke-width:1.0;"/><text fill="#000000" font-family="sans-serif" font-size="14" lengthAdjust="spacing" textLength="146.5898" x="684" y="334.8857">set_reminder() : void</text><ellipse cx="675" cy="347.8359" fill="#84BE84" rx="3" ry="3" style="stroke:#038048;stroke-width:1.0;"/><text fill="#000000" font-family="sans-serif" font-size="14" lengthAdjust="spacing" textLength="158.8604" x="684" y="351.1826">send_reminder() : void</text><ellipse cx="675" cy="364.1328" fill="#84BE84" rx="3" ry="3" style="stroke:#038048;stroke-width:1.0;"/><text fill="#000000" font-family="sans-serif" font-size="14" lengthAdjust="spacing" textLength="241.7803" x="684" y="367.4795">get_reminders() : List&lt;Reminder&gt;</text></g><!--class FinanceManager--><g id="elem_FinanceManager"><rect codeLine="28" fill="#F1F1F1" height="129.4844" id="FinanceManager" rx="2.5" ry="2.5" style="stroke:#181818;stroke-width:0.5;" width="267.3359" x="775.5" y="7"/><ellipse cx="846.9458" cy="23" fill="#ADD1B2" rx="11" ry="11" style="stroke:#181818;stroke-width:1.0;"/><path d="M849.9146,28.6406 Q849.3364,28.9375 848.6958,29.0781 Q848.0552,29.2344 847.3521,29.2344 Q844.8521,29.2344 843.5239,27.5938 Q842.2114,25.9375 842.2114,22.8125 Q842.2114,19.6875 843.5239,18.0313 Q844.8521,16.375 847.3521,16.375 Q848.0552,16.375 848.6958,16.5313 Q849.3521,16.6875 849.9146,16.9844 L849.9146,19.7031 Q849.2896,19.125 848.6958,18.8594 Q848.1021,18.5781 847.4771,18.5781 Q846.1333,18.5781 845.4458,19.6563 Q844.7583,20.7188 844.7583,22.8125 Q844.7583,24.9063 845.4458,25.9844 Q846.1333,27.0469 847.4771,27.0469 Q848.1021,27.0469 848.6958,26.7813 Q849.2896,26.5 849.9146,25.9219 L849.9146,28.6406 Z " fill="#000000"/><text fill="#000000" font-family="sans-serif" font-size="14" lengthAdjust="spacing" textLength="115.9443" x="867.4458" y="27.8467">FinanceManager</text><line style="stroke:#181818;stroke-width:0.5;" x1="776.5" x2="1041.8359" y1="39" y2="39"/><rect fill="none" height="6" style="stroke:#C82930;stroke-width:1.0;" width="6" x="783.5" y="49.6484"/><text fill="#000000" font-family="sans-serif" font-size="14" lengthAdjust="spacing" textLength="91.8955" x="795.5" y="55.9951">income: float</text><rect fill="none" height="6" style="stroke:#C82930;stroke-width:1.0;" width="6" x="783.5" y="65.9453"/><text fill="#000000" font-family="sans-serif" font-size="14" lengthAdjust="spacing" textLength="107.0918" x="795.5" y="72.292">expenses: float</text><line style="stroke:#181818;stroke-width:0.5;" x1="776.5" x2="1041.8359" y1="79.5938" y2="79.5938"/><ellipse cx="786.5" cy="93.2422" fill="#84BE84" rx="3" ry="3" style="stroke:#038048;stroke-width:1.0;"/><text fill="#000000" font-family="sans-serif" font-size="14" lengthAdjust="spacing" textLength="233.4336" x="795.5" y="96.5889">add_income(amount: float) : void</text><ellipse cx="786.5" cy="109.5391" fill="#84BE84" rx="3" ry="3" style="stroke:#038048;stroke-width:1.0;"/><text fill="#000000" font-family="sans-serif" font-size="14" lengthAdjust="spacing" textLength="241.3359" x="795.5" y="112.8857">add_expense(amount: float) : void</text><ellipse cx="786.5" cy="125.8359" fill="#84BE84" rx="3" ry="3" style="stroke:#038048;stroke-width:1.0;"/><text fill="#000000" font-family="sans-serif" font-size="14" lengthAdjust="spacing" textLength="181.4189" x="795.5" y="129.1826">calculate_balance() : float</text></g><!--class Recipe--><g id="elem_Recipe"><rect codeLine="36" fill="#F1F1F1" height="96.8906" id="Recipe" rx="2.5" ry="2.5" style="stroke:#181818;stroke-width:0.5;" width="386.4043" x="7" y="23"/><ellipse cx="172.2383" cy="39" fill="#ADD1B2" rx="11" ry="11" style="stroke:#181818;stroke-width:1.0;"/><path d="M175.207,44.6406 Q174.6289,44.9375 173.9883,45.0781 Q173.3477,45.2344 172.6445,45.2344 Q170.1445,45.2344 168.8164,43.5938 Q167.5039,41.9375 167.5039,38.8125 Q167.5039,35.6875 168.8164,34.0313 Q170.1445,32.375 172.6445,32.375 Q173.3477,32.375 173.9883,32.5313 Q174.6445,32.6875 175.207,32.9844 L175.207,35.7031 Q174.582,35.125 173.9883,34.8594 Q173.3945,34.5781 172.7695,34.5781 Q171.4258,34.5781 170.7383,35.6563 Q170.0508,36.7188 170.0508,38.8125 Q170.0508,40.9063 170.7383,41.9844 Q171.4258,43.0469 172.7695,43.0469 Q173.3945,43.0469 173.9883,42.7813 Q174.582,42.5 175.207,41.9219 L175.207,44.6406 Z " fill="#000000"/><text fill="#000000" font-family="sans-serif" font-size="14" lengthAdjust="spacing" textLength="47.4277" x="192.7383" y="43.8467">Recipe</text><line style="stroke:#181818;stroke-width:0.5;" x1="8" x2="392.4043" y1="55" y2="55"/><rect fill="none" height="6" style="stroke:#C82930;stroke-width:1.0;" width="6" x="15" y="65.6484"/><text fill="#000000" font-family="sans-serif" font-size="14" lengthAdjust="spacing" textLength="189.875" x="27" y="71.9951">ingredients: List&lt;Product&gt;</text><rect fill="none" height="6" style="stroke:#C82930;stroke-width:1.0;" width="6" x="15" y="81.9453"/><text fill="#000000" font-family="sans-serif" font-size="14" lengthAdjust="spacing" textLength="109.6895" x="27" y="88.292">instructions: str</text><line style="stroke:#181818;stroke-width:0.5;" x1="8" x2="392.4043" y1="95.5938" y2="95.5938"/><ellipse cx="18" cy="109.2422" fill="#84BE84" rx="3" ry="3" style="stroke:#038048;stroke-width:1.0;"/><text fill="#000000" font-family="sans-serif" font-size="14" lengthAdjust="spacing" textLength="360.4043" x="27" y="112.5889">get_recipes_based_on_ingredients() : List&lt;Recipe&gt;</text></g><!--link Fridge to Product--><g id="link_Fridge_Product"><path codeLine="42" d="M537.28,128.11 C515.85,153.6 489.94,184.44 465.96,212.98 " fill="none" id="Fridge-Product" style="stroke:#181818;stroke-width:1.0;"/><text fill="#000000" font-family="sans-serif" font-size="13" lengthAdjust="spacing" textLength="55.0278" x="506" y="179.0669">contains</text><text fill="#000000" font-family="sans-serif" font-size="13" lengthAdjust="spacing" textLength="8.271" x="522.8101" y="148.3875">1</text><text fill="#000000" font-family="sans-serif" font-size="13" lengthAdjust="spacing" textLength="6.5" x="465.8605" y="202.0438">*</text></g><!--link Fridge to Reminder--><g id="link_Fridge_Reminder"><path codeLine="43" d="M636.08,128.11 C664.41,158.36 699.79,196.13 730.24,228.65 " fill="none" id="Fridge-Reminder" style="stroke:#181818;stroke-width:1.0;"/><text fill="#000000" font-family="sans-serif" font-size="13" lengthAdjust="spacing" textLength="59.8584" x="685" y="179.0669">manages</text><text fill="#000000" font-family="sans-serif" font-size="13" lengthAdjust="spacing" textLength="8.271" x="634.2689" y="148.3875">1</text><text fill="#000000" font-family="sans-serif" font-size="13" lengthAdjust="spacing" textLength="6.5" x="717.53" y="218.0276">*</text></g><!--link FinanceManager to Reminder--><g id="link_FinanceManager_Reminder"><path codeLine="44" d="M878.08,136.15 C864.1,164.94 847.5,199.1 833.06,228.83 " fill="none" id="FinanceManager-Reminder" style="stroke:#181818;stroke-width:1.0;"/><text fill="#000000" font-family="sans-serif" font-size="13" lengthAdjust="spacing" textLength="39.8569" x="864" y="179.0669">tracks</text><text fill="#000000" font-family="sans-serif" font-size="13" lengthAdjust="spacing" textLength="8.271" x="866.0386" y="156.5389">1</text><text fill="#000000" font-family="sans-serif" font-size="13" lengthAdjust="spacing" textLength="6.5" x="830.2513" y="217.9732">*</text></g><!--link Recipe to Product--><g id="link_Recipe_Product"><path codeLine="45" d="M240.02,120.12 C262.55,146.94 291.4,181.27 317.9,212.81 " fill="none" id="Recipe-Product" style="stroke:#181818;stroke-width:1.0;"/><text fill="#000000" font-family="sans-serif" font-size="13" lengthAdjust="spacing" textLength="29.7832" x="292" y="179.0669">uses</text><text fill="#000000" font-family="sans-serif" font-size="13" lengthAdjust="spacing" textLength="8.271" x="237.0759" y="140.0958">1</text><text fill="#000000" font-family="sans-serif" font-size="13" lengthAdjust="spacing" textLength="6.5" x="305.5393" y="201.8597">*</text></g><!--SRC=[ZPF1ReCm38RlF4NK4rlLmwvesh6dJPhs0iXDN6GL4XI7QjEqTvy3WOMAJUC08lbZV_xjw1QOrQjtPj11VHPAdeEoq66bEFZqZ-yzUGZaR6qWo5Py1-emxLyqj9Kwjmv2Mkcz2qXslNY6i5xGu4-SB-qLSJrcGrFUgKgTd6lJJeEXjaFm53cWhScUtQWnf4FnLHHwhENeoJIubD9FfKcMP-Bmc2fzIZ71c3efolIjPZTYwAiZawGUEtV5_weZRAfZFi8Zx9fYeNx3Zgn1lt1to0pDgWi-QRPx43xwJBrNB0JpYVA6Zj6QNpURx636F1Dcq4UoO3M-W1NI7tIosiNvoJijNg1bl6bsj7zIbz2vmSxZSKCKPId0dpgPGZsqOajzWZQIZVHJminfJJrci8tqYD1kZqWKYAVoBqF7kR-JJJ4MIpgMFiljoABbpaNLw5iQpjt3JXqEQdU_MwvUfRIp0IJRXcYPZafrezaYMdk_BGuUz8MBLF9cra6QyWq0]--></g></svg>